<svg width="107" height="94" viewBox="0 0 107 94" fill="none" xmlns="http://www.w3.org/2000/svg">
<mask id="path-1-inside-1_1_37" fill="white">
<path fill-rule="evenodd" clip-rule="evenodd" d="M8.41446 49.0431L53.106 93.7346L93.7346 53.1059L97.7974 49.0431C109.017 37.8238 109.017 19.6337 97.7974 8.41446C86.5782 -2.80483 68.3881 -2.80484 57.1688 8.41445L53.1059 12.4773L49.0431 8.41447C37.8238 -2.80481 19.6338 -2.80481 8.41447 8.41448C-2.80481 19.6338 -2.80482 37.8238 8.41446 49.0431Z"/>
</mask>
<path fill-rule="evenodd" clip-rule="evenodd" d="M8.41446 49.0431L53.106 93.7346L93.7346 53.1059L97.7974 49.0431C109.017 37.8238 109.017 19.6337 97.7974 8.41446C86.5782 -2.80483 68.3881 -2.80484 57.1688 8.41445L53.1059 12.4773L49.0431 8.41447C37.8238 -2.80481 19.6338 -2.80481 8.41447 8.41448C-2.80481 19.6338 -2.80482 37.8238 8.41446 49.0431Z" fill="#FF045F"/>
<path d="M53.106 93.7346L48.2305 98.61L53.106 103.485L57.9814 98.61L53.106 93.7346ZM8.41446 49.0431L3.53903 53.9185L8.41446 49.0431ZM93.7346 53.1059L98.61 57.9814L98.61 57.9814L93.7346 53.1059ZM97.7974 49.0431L92.922 44.1676L92.922 44.1677L97.7974 49.0431ZM53.1059 12.4773L48.2305 17.3528L53.1059 22.2282L57.9814 17.3528L53.1059 12.4773ZM8.41447 8.41448L3.53904 3.53904L8.41447 8.41448ZM57.9814 88.8592L13.2899 44.1677L3.53903 53.9185L48.2305 98.61L57.9814 88.8592ZM88.8591 48.2305L48.2305 88.8592L57.9814 98.61L98.61 57.9814L88.8591 48.2305ZM92.922 44.1677L88.8591 48.2305L98.61 57.9814L102.673 53.9185L92.922 44.1677ZM92.922 13.2899C101.449 21.8166 101.449 35.641 92.922 44.1676L102.673 53.9185C116.585 40.0066 116.585 17.4509 102.673 3.53902L92.922 13.2899ZM62.0443 13.2899C70.5709 4.76323 84.3954 4.76323 92.922 13.2899L102.673 3.53902C88.761 -10.3729 66.2053 -10.3729 52.2934 3.53901L62.0443 13.2899ZM57.9814 17.3528L62.0443 13.2899L52.2934 3.53901L48.2305 7.60189L57.9814 17.3528ZM44.1677 13.2899L48.2305 17.3528L57.9814 7.60189L53.9185 3.53904L44.1677 13.2899ZM13.2899 13.2899C21.8166 4.76326 35.641 4.76326 44.1677 13.2899L53.9185 3.53904C40.0066 -10.3729 17.4509 -10.3729 3.53904 3.53904L13.2899 13.2899ZM13.2899 44.1677C4.76325 35.641 4.76325 21.8166 13.2899 13.2899L3.53904 3.53904C-10.3729 17.451 -10.3729 40.0066 3.53903 53.9185L13.2899 44.1677Z" fill="#FF045F" mask="url(#path-1-inside-1_1_37)"/>
</svg>
